<?xml version="1.0" encoding="UTF-8"?>
<svg version="1.1" xmlns="http://www.w3.org/2000/svg" width="1772" height="700">
<path d="M0 0 C2.52405289 0.00056481 5.04810611 0.00024618 7.57215881 -0.00088501 C12.98440314 -0.00133867 18.39658536 0.00428941 23.80881691 0.01559067 C31.63375864 0.03191917 39.45867711 0.03706115 47.28363403 0.03956665 C59.98239691 0.04393229 72.68113395 0.05721052 85.37988281 0.07617188 C97.70768099 0.09456008 110.03547211 0.10870215 122.36328125 0.1171875 C123.12453671 0.11771295 123.88579218 0.11823839 124.67011598 0.11877976 C128.48951993 0.12139004 132.30892393 0.12391741 136.12832797 0.12640357 C167.76029424 0.1471008 199.39222804 0.18244512 231.02416992 0.22705078 C231.0947083 15.00612077 231.14737507 29.78516805 231.17960644 44.56437302 C231.19497954 51.42887804 231.21588244 58.29327759 231.25048828 65.15771484 C231.28394405 71.79727156 231.30108407 78.43674853 231.30880165 85.07639313 C231.31429301 87.59418702 231.32501415 90.11197578 231.34136009 92.6297226 C231.63025198 139.02380308 218.82342505 180.14801339 185.83666992 213.78955078 C171.82166285 227.74157692 155.33671335 237.65058495 136.64916992 244.10205078 C135.87307373 244.37621826 135.09697754 244.65038574 134.29736328 244.93286133 C119.59209486 249.70810778 104.23770401 250.676501 88.89453125 250.56762695 C87.17746496 250.56677757 85.46039758 250.56726187 83.74333191 250.56895447 C79.14946298 250.56980373 74.55583637 250.55235456 69.96202302 250.5312326 C65.13612792 250.51228426 60.31022527 250.51070123 55.48429871 250.50715637 C46.37589198 250.49788861 37.26759524 250.47334737 28.15923661 250.4431079 C17.77690512 250.40939832 7.39456796 250.39303655 -2.98780477 250.3780216 C-24.31720757 250.34679217 -45.64651185 250.29413595 -66.97583008 250.22705078 C-66.84064371 247.21500028 -66.69909118 244.20346875 -66.55395508 241.19189453 C-66.5167334 240.34800171 -66.47951172 239.50410889 -66.44116211 238.63464355 C-65.63815412 222.35011395 -61.01214765 208.18590779 -50.97583008 195.22705078 C-50.53883789 194.61345703 -50.1018457 193.99986328 -49.65161133 193.36767578 C-41.36137307 182.51318966 -27.17994143 175.50400274 -13.97583008 173.22705078 C-12.31308858 173.1375996 -10.64743813 173.09403492 -8.9822998 173.08901978 C-8.00134338 173.08356644 -7.02038696 173.0781131 -6.00970459 173.07249451 C-4.94471741 173.07145218 -3.87973022 173.07040985 -2.7824707 173.06933594 C-1.65170105 173.06425522 -0.5209314 173.0591745 0.644104 173.05393982 C3.09892505 173.04324527 5.55375578 173.0346215 8.0085907 173.02782059 C11.90238487 173.01600873 15.79606927 172.99654767 19.68981934 172.97470093 C30.76086481 172.91296477 41.83190567 172.85890916 52.90307617 172.82568359 C59.67815213 172.80526243 66.4530212 172.7692878 73.22798157 172.72492599 C75.80175927 172.71082444 78.37557224 172.70205686 80.9493866 172.69887161 C84.565019 172.69392517 88.18012924 172.67066938 91.7956543 172.64355469 C93.3688443 172.64806389 93.3688443 172.64806389 94.97381592 172.65266418 C113.28395541 172.45026149 128.11581001 165.81865251 141.17651367 153.13720703 C158.34902164 134.90995769 160.6888672 112.92919661 161.57104492 89.15673828 C161.61535645 88.0055249 161.65966797 86.85431152 161.70532227 85.66821289 C161.81337142 82.85455461 161.9196138 80.04084066 162.02416992 77.22705078 C138.37110488 77.28765973 114.71814743 77.36521225 91.06520462 77.46276569 C80.08197237 77.50767241 69.09877217 77.54709888 58.11547852 77.57348633 C48.53901232 77.59650792 38.96264799 77.62995237 29.38626266 77.67575234 C24.31875472 77.69962846 19.25134733 77.71839397 14.18378448 77.72466469 C9.40671424 77.73074097 4.62990107 77.75083219 -0.14707375 77.78132629 C-1.89325229 77.79006591 -3.63946448 77.79383763 -5.38566399 77.79205894 C-24.27188593 77.7789042 -39.68882635 81.43516977 -53.77270508 94.99658203 C-54.49973633 95.73263672 -55.22676758 96.46869141 -55.97583008 97.22705078 C-56.59973633 97.82904297 -57.22364258 98.43103516 -57.86645508 99.05126953 C-71.66646637 113.37965964 -76.11276101 133.48620863 -76.13354492 152.74536133 C-76.13862564 153.78049362 -76.14370636 154.81562592 -76.14894104 155.88212585 C-76.1596092 158.12192132 -76.16824319 160.36172721 -76.17506027 162.6015377 C-76.18690492 166.15497161 -76.20637264 169.70828701 -76.22817993 173.26167297 C-76.28960464 183.36231505 -76.34376649 193.46294401 -76.37719727 203.5637207 C-76.39822239 209.75107393 -76.43358722 215.93820886 -76.47795486 222.12543678 C-76.49205111 224.4739607 -76.50082278 226.82252321 -76.50400925 229.17108727 C-76.526145 243.92525995 -76.69667367 256.974383 -83.60083008 270.35205078 C-83.9456543 271.02872803 -84.29047852 271.70540527 -84.64575195 272.40258789 C-87.90036158 278.52689259 -91.96120272 283.43509782 -96.97583008 288.22705078 C-97.89428711 289.17451172 -97.89428711 289.17451172 -98.83129883 290.14111328 C-109.76536087 300.72547185 -126.1908701 306.3078717 -141.19458008 306.24658203 C-142.09112305 306.24376221 -142.98766602 306.24094238 -143.91137695 306.23803711 C-144.59264648 306.23441162 -145.27391602 306.23078613 -145.97583008 306.22705078 C-146.04615907 284.25958689 -146.09893464 262.29214177 -146.13126659 240.32458782 C-146.14668321 230.12284755 -146.16767221 219.92117756 -146.20214844 209.71948242 C-146.23221122 200.8194436 -146.25144282 191.91945571 -146.25809556 183.01936752 C-146.26197946 178.31432234 -146.27099628 173.6094228 -146.29302025 168.90442467 C-146.31365329 164.45981104 -146.31961083 160.01540054 -146.31515312 155.57074356 C-146.31596652 153.95486782 -146.3217703 152.33898401 -146.3334465 150.72315025 C-146.43622352 135.74267941 -144.90549308 120.69332515 -140.35083008 106.35205078 C-140.09922119 105.5416333 -139.8476123 104.73121582 -139.58837891 103.89624023 C-130.76784341 76.47296677 -116.15105636 52.74161573 -95.97583008 32.22705078 C-95.2977832 31.52451172 -94.61973633 30.82197266 -93.92114258 30.09814453 C-80.94184525 17.59862668 -63.43082498 9.66052961 -46.41333008 4.47705078 C-45.76549561 4.27805176 -45.11766113 4.07905273 -44.45019531 3.87402344 C-29.7693934 -0.34740917 -15.13781308 -0.04753056 0 0 Z " fill="#20AA4A" transform="translate(256.975830078125,283.77294921875)"/>
<path d="M0 0 C1.66692091 0.00056546 3.33384232 0.00024493 5.00076294 -0.00088501 C9.48543194 -0.00145427 13.96999198 0.01023029 18.45463586 0.02426291 C23.15645294 0.03684202 27.85827306 0.03794639 32.56010437 0.04031372 C41.44556148 0.04650752 50.33096885 0.06288966 59.21640414 0.0830127 C69.33984337 0.10543739 79.46328508 0.11638159 89.586743 0.12640357 C110.39468901 0.14725795 131.20259039 0.18239271 152.01049805 0.22705078 C152.08026662 13.28437452 152.13344513 26.34165328 152.16593456 39.39912605 C152.18153444 45.46341705 152.20266827 51.52757971 152.23681641 57.59179688 C152.26961322 63.45327883 152.28739367 69.31463799 152.29512978 75.17620468 C152.300637 77.40310471 152.31139038 79.62999866 152.32768822 81.85684586 C152.50097959 106.5346967 148.74022289 125.74896002 131.38549805 144.41455078 C115.9566941 159.2990871 95.82085135 163.22705078 75.01049805 163.22705078 C75.01049805 134.84705078 75.01049805 106.46705078 75.01049805 77.22705078 C60.96487305 77.30955078 46.91924805 77.39205078 32.44799805 77.47705078 C25.83982056 77.5007373 25.83982056 77.5007373 19.09814453 77.52490234 C15.08671477 77.55819545 15.08671477 77.55819545 11.07533264 77.59661865 C9.31353579 77.6110609 7.55166612 77.61799758 5.78981018 77.61859131 C-17.00393033 77.63938562 -35.16256932 83.08528139 -52.1027832 99.24267578 C-63.80068775 111.50843977 -70.77721746 127.68349835 -71.27929688 144.57543945 C-71.69846639 158.23508091 -72.97189496 170.68196965 -82.77075195 181.12548828 C-87.33618059 185.26056913 -92.41885814 188.72732433 -97.4309082 192.29345703 C-99.67401813 193.98863171 -101.60700341 195.70596428 -103.55200195 197.72705078 C-104.35637695 198.55205078 -105.16075195 199.37705078 -105.98950195 200.22705078 C-106.64950195 200.22705078 -107.30950195 200.22705078 -107.98950195 200.22705078 C-108.21895508 200.78134766 -108.4484082 201.33564453 -108.68481445 201.90673828 C-110.35016613 204.86847151 -112.48166651 206.92777472 -114.86450195 209.35205078 C-129.43152696 224.83299038 -140.99902624 245.22063881 -147.98950195 265.22705078 C-148.31950195 265.22705078 -148.64950195 265.22705078 -148.98950195 265.22705078 C-149.08352092 248.26599979 -149.15375995 231.30503173 -149.19675064 214.34377861 C-149.21725484 206.46591279 -149.24513862 198.58821017 -149.29125977 190.71044922 C-149.33150428 183.83309177 -149.35702261 176.95585266 -149.36585593 170.0783807 C-149.37100811 166.44682771 -149.38285316 162.81561283 -149.41242218 159.18416977 C-149.6478723 129.0607504 -145.44945085 102.82173066 -130.98950195 76.22705078 C-130.15805664 74.65697266 -130.15805664 74.65697266 -129.30981445 73.05517578 C-110.88560298 39.73291771 -77.922446 15.40549455 -41.6184082 4.91064453 C-37.76802902 3.87916433 -33.9076403 2.96173432 -29.98950195 2.22705078 C-29.11712293 2.05988115 -28.2447439 1.89271152 -27.34592915 1.72047615 C-18.19176784 0.13344281 -9.25021154 -0.04446331 0 0 Z " fill="#1A2451" transform="translate(259.989501953125,110.77294921875)"/>
<path d="M0 0 C0.33 0 0.66 0 1 0 C1.06981981 10.85806261 1.12297263 21.71607093 1.15543652 32.57431316 C1.17102544 37.61741307 1.19213855 42.66035825 1.22631836 47.70336914 C1.25915518 52.5793031 1.27690381 57.45508917 1.28463173 62.33112526 C1.29013191 64.18205909 1.30087111 66.03298576 1.31719017 67.88385582 C1.51015272 90.69739313 -3.60183572 112.75685899 -19.66577148 129.88452148 C-26.57695137 136.87091231 -34.90735078 141.47281326 -44 145 C-44.66640188 145.26900777 -45.33280376 145.53801554 -46.01939964 145.81517506 C-54.24308666 148.71927479 -62.51521931 148.40027836 -71.10791016 148.34057617 C-72.82364894 148.3397287 -74.5393888 148.34020738 -76.25512695 148.34190369 C-80.88671515 148.34276039 -85.51806775 148.32518747 -90.14960146 148.30418181 C-94.99957347 148.28536064 -99.84955155 148.2836603 -104.69955444 148.28010559 C-113.87200873 148.27080106 -123.04435508 148.24620892 -132.21676195 148.21605712 C-142.66418008 148.18246344 -153.1116035 148.16601463 -163.55906224 148.15097082 C-185.03943495 148.11965789 -206.51971066 148.06692849 -228 148 C-227.86481363 144.9879495 -227.72326111 141.97641796 -227.578125 138.96484375 C-227.52229248 137.69900452 -227.52229248 137.69900452 -227.46533203 136.40759277 C-226.66232404 120.12306317 -222.03631758 105.95885701 -212 93 C-211.56300781 92.38640625 -211.12601563 91.7728125 -210.67578125 91.140625 C-202.385543 80.28613888 -188.20411135 73.27695196 -175 71 C-173.3372585 70.91054882 -171.67160805 70.86698414 -170.00646973 70.86196899 C-169.02551331 70.85651566 -168.04455688 70.85106232 -167.03387451 70.84544373 C-165.96888733 70.8444014 -164.90390015 70.84335907 -163.80664062 70.84228516 C-162.67587097 70.83720444 -161.54510132 70.83212372 -160.38006592 70.82688904 C-157.92524488 70.81619448 -155.47041414 70.80757072 -153.01557922 70.80076981 C-149.12178506 70.78895795 -145.22810065 70.76949689 -141.33435059 70.74765015 C-130.26330511 70.68591399 -119.19226425 70.63185837 -108.12109375 70.59863281 C-101.34601779 70.57821165 -94.57114872 70.54223702 -87.79618835 70.49787521 C-85.22241066 70.48377366 -82.64859768 70.47500608 -80.07478333 70.47182083 C-76.45915092 70.46687439 -72.84404068 70.44361859 -69.22851562 70.41650391 C-67.65532562 70.42101311 -67.65532562 70.42101311 -66.050354 70.4256134 C-47.74021451 70.22321071 -32.90835991 63.59160173 -19.84765625 50.91015625 C-6.27771184 36.50674116 -1.57129886 19.16046525 0 0 Z " fill="#0A4924" transform="translate(418,386)"/>
<path d="M0 0 C86.7890625 0 86.7890625 0 100.2421875 12 C108.64855084 20.62191111 110.59713761 29.74209821 110.4753418 41.4284668 C110.13118699 50.39829761 107.61110711 57.67633233 101 64 C97.75254249 66.16497167 94.4225311 68.12591501 91 70 C91.64066406 70.29132813 92.28132812 70.58265625 92.94140625 70.8828125 C103.04129261 75.66934583 108.93149784 80.36173754 113 91 C116.38579378 101.24160507 115.71843436 112.9692139 111.21484375 122.76171875 C105.25267187 133.74668495 96.71532261 139.58848081 84.859375 143.2734375 C79.32528029 144.67964189 74.03742101 145.14320603 68.34228516 145.11352539 C67.21121118 145.11370619 67.21121118 145.11370619 66.05728722 145.11389065 C63.63451485 145.11314871 61.21182097 145.10555347 58.7890625 145.09765625 C57.28605181 145.0961846 55.7830406 145.09516526 54.2800293 145.09460449 C48.72834501 145.08937745 43.17667172 145.07541618 37.625 145.0625 C25.20875 145.041875 12.7925 145.02125 0 145 C0 97.15 0 49.3 0 0 Z M33 25 C33 36.22 33 47.44 33 59 C37.434375 59.061875 41.86875 59.12375 46.4375 59.1875 C47.81736084 59.21481201 49.19722168 59.24212402 50.61889648 59.27026367 C58.39774495 59.32256129 65.83897141 59.31676192 72.15625 54.28125 C72.5996875 53.6934375 73.043125 53.105625 73.5 52.5 C73.9640625 51.9121875 74.428125 51.324375 74.90625 50.71875 C77.42681994 46.75785438 77.56642294 42.53947531 77 38 C75.61814563 33.39659358 73.7261414 30.08068487 69.5625 27.5625 C64.36794421 25.28418606 60.03609049 24.87654753 54.38671875 24.90234375 C53.26225342 24.90484131 52.13778809 24.90733887 50.97924805 24.90991211 C49.56297119 24.91901611 48.14669434 24.92812012 46.6875 24.9375 C39.9121875 24.9684375 39.9121875 24.9684375 33 25 Z M33 83 C33 95.21 33 107.42 33 120 C38.094375 120.061875 43.18875 120.12375 48.4375 120.1875 C50.82053345 120.22846802 50.82053345 120.22846802 53.25170898 120.27026367 C65.44358358 120.46658642 65.44358358 120.46658642 76.15625 115.28125 C76.5996875 114.6934375 77.043125 114.105625 77.5 113.5 C77.9640625 112.9121875 78.428125 112.324375 78.90625 111.71875 C81.9297647 106.96751262 81.41936326 101.41289239 81 96 C79.26675422 90.80026266 76.44573242 88.13816406 72 85 C67.36045333 83.06915319 63.15652028 82.73023714 58.1953125 82.8046875 C57.23129517 82.80770874 57.23129517 82.80770874 56.24780273 82.81079102 C53.87346135 82.82116422 51.49922263 82.84908605 49.125 82.875 C43.80375 82.91625 38.4825 82.9575 33 83 Z " fill="#1B2451" transform="translate(565,284)"/>
<path d="M0 0 C-2.94428378 1.96285585 -5.90481323 3.4704839 -9.0625 5.0625 C-23.81567023 12.98884173 -33.74512986 25.00491745 -38.9375 40.86328125 C-41.4254009 49.51112909 -42.15137004 57.77839917 -42.06591797 66.72973633 C-42.06124512 67.66908524 -42.05657227 68.60843414 -42.05175781 69.57624817 C-42.04130595 71.60378517 -42.02866049 73.63131183 -42.01403427 75.65882301 C-41.99188507 78.8759593 -41.97788756 82.09303557 -41.96633911 85.31022644 C-41.93286814 94.45340127 -41.89123564 103.59647685 -41.82861328 112.73950195 C-41.79080675 118.34433935 -41.76789476 123.94907575 -41.75430679 129.55402184 C-41.74629343 131.68014024 -41.73274314 133.80624574 -41.71337509 135.93229103 C-41.57529431 151.35815009 -41.55613895 165.9348323 -52.78125 177.8984375 C-57.34667863 182.03351835 -62.42935619 185.50027354 -67.44140625 189.06640625 C-69.68451618 190.76158093 -71.61750146 192.4789135 -73.5625 194.5 C-74.366875 195.325 -75.17125 196.15 -76 197 C-76.66 197 -77.32 197 -78 197 C-78.22945312 197.55429687 -78.45890625 198.10859375 -78.6953125 198.6796875 C-80.36066418 201.64142073 -82.49216456 203.70072394 -84.875 206.125 C-99.442025 221.6059396 -111.00952429 241.99358803 -118 262 C-118.33 262 -118.66 262 -119 262 C-119.09401897 245.03894901 -119.164258 228.07798094 -119.20724869 211.11672783 C-119.22775288 203.23886201 -119.25563666 195.36115939 -119.30175781 187.48339844 C-119.34200232 180.60604099 -119.36752065 173.72880188 -119.37635398 166.85132992 C-119.38150615 163.21977692 -119.39335121 159.58856205 -119.42292023 155.95711899 C-119.65837035 125.83369962 -115.4599489 99.59467988 -101 73 C-100.16855469 71.42992187 -100.16855469 71.42992187 -99.3203125 69.828125 C-80.40187081 35.61199601 -46.70820027 11.7131804 -9.5625 1 C-6.29131315 0.13774317 -3.38274455 -0.09545664 0 0 Z " fill="#0057A8" transform="translate(230,114)"/>
<path d="M0 0 C10.56 0 21.12 0 32 0 C36.9913185 17.3492883 36.9913185 17.3492883 39.109375 24.73632812 C40.5556556 29.78036448 42.00280551 34.82414016 43.45507812 39.86645508 C44.62563683 43.93085741 45.79234075 47.99634793 46.95635986 52.06262779 C47.40153376 53.61518572 47.84810432 55.16734386 48.29608154 56.71909523 C48.92242414 58.88957491 49.54382323 61.06141223 50.1640625 63.23364258 C50.51936035 64.47052322 50.8746582 65.70740387 51.24072266 66.98176575 C52 70 52 70 52 73 C52.66 73 53.32 73 54 73 C54.12668564 71.98634872 54.25337128 70.97269745 54.38389587 69.92832947 C54.9674946 66.20725708 55.81006635 62.76129425 56.85766602 59.14672852 C57.13586182 58.17959175 57.13586182 58.17959175 57.41967773 57.19291687 C58.02664607 55.08693422 58.64020946 52.982937 59.25390625 50.87890625 C59.67887232 49.40929328 60.1034214 47.93955966 60.52757263 46.4697113 C61.63967653 42.62001356 62.7574035 38.77197105 63.87634277 34.92425537 C65.22059921 30.29732041 66.55780386 25.66834314 67.89620209 21.039711 C69.92542786 14.02490179 71.96354721 7.0127327 74 0 C84.56 0 95.12 0 106 0 C110.9913185 17.05961357 110.9913185 17.05961357 113.109375 24.33203125 C114.55485331 29.29501702 116.00149723 34.25764208 117.45507812 39.21826172 C118.62686074 43.21746217 119.79341705 47.21815297 120.95635986 51.21993256 C121.40104231 52.74669424 121.84760771 54.2729088 122.29608154 55.7985611 C122.92373012 57.93492909 123.54466597 60.07314138 124.1640625 62.21191406 C124.69700928 64.03725677 124.69700928 64.03725677 125.24072266 65.8994751 C126 69 126 69 126 73 C126.66 73 127.32 73 128 73 C128.09642792 72.44933868 128.19285583 71.89867737 128.29220581 71.33132935 C129.75440155 63.49499661 131.92054008 55.89398408 134.1328125 48.2421875 C134.53386714 46.84410428 134.93456697 45.44591925 135.33493042 44.04763794 C136.38024566 40.40038839 137.4303163 36.75452536 138.48144531 33.10894775 C139.7466677 28.71702775 141.0058674 24.32337757 142.26609802 19.93002319 C144.17283365 13.28535858 146.08711957 6.64291205 148 0 C158.56 0 169.12 0 180 0 C179.31553329 5.47573366 178.640476 9.78448847 177.1015625 14.93383789 C176.91104813 15.57771454 176.72053375 16.22159119 176.52424622 16.88497925 C175.89706859 18.99934653 175.26105172 21.11094329 174.625 23.22265625 C174.17658334 24.72862238 173.72876059 26.23476547 173.28149414 27.74107361 C172.10020602 31.71413066 170.91156677 35.68494928 169.72113037 39.65527344 C167.84932439 45.9036042 165.99004653 52.15568463 164.12780762 58.4068718 C163.43922763 60.71686053 162.74948799 63.02650056 162.05957031 65.33609009 C159.79201494 72.93344375 157.54423846 80.53591224 155.33984375 88.15185547 C155.0241468 89.24253216 155.0241468 89.24253216 154.70207214 90.35524273 C153.70714874 93.7961762 152.71565888 97.23806434 151.72827148 100.6811676 C151.20922241 102.48339027 151.20922241 102.48339027 150.6796875 104.32202148 C150.37788574 105.37518051 150.07608398 106.42833954 149.76513672 107.51341248 C149 110 149 110 148 112 C135.79 112 123.58 112 111 112 C103.80994548 89.72492915 96.89637002 67.36741624 90 45 C89.82540253 45.55915604 89.65080505 46.11831207 89.47091675 46.69441223 C87.62127472 52.61775901 85.77120116 58.5409709 83.92089844 64.46411133 C83.23426867 66.66232031 82.54774189 68.86056145 81.86132812 71.05883789 C77.59759957 84.71336627 73.31532717 98.36168408 69 112 C56.79 112 44.58 112 32 112 C25.51150685 91.13288003 19.28840679 70.19431904 13.14257812 49.22412109 C11.75769862 44.49989505 10.36609726 39.77767481 8.9731369 35.05582619 C7.89207817 31.38695691 6.81580081 27.71669786 5.74085999 24.04603195 C5.22911208 22.30158506 4.71557285 20.55766259 4.20018005 18.81428909 C3.48710118 16.40059593 2.78080278 13.98501829 2.07617188 11.56884766 C1.86432251 10.85731537 1.65247314 10.14578308 1.4342041 9.41268921 C0.47226046 6.08852869 0 3.50060605 0 0 Z " fill="#1B2451" transform="translate(1439,317)"/>
<path d="M0 0 C11.941875 -0.061875 23.88375 -0.12375 36.1875 -0.1875 C39.93246826 -0.21481201 43.67743652 -0.24212402 47.53588867 -0.27026367 C52.17443848 -0.28381348 52.17443848 -0.28381348 54.3585968 -0.28633118 C55.8563862 -0.29088246 57.35416591 -0.30131569 58.85188293 -0.31672668 C74.58499094 -0.47026111 89.55826332 1.13104586 101.8125 12.125 C113.69012871 25.03050042 113.81847311 41.70034272 113.19091797 58.17041016 C112.38362298 70.13530653 107.42519891 80.01489983 98.8125 88.3125 C88.81615137 96.22440822 75.65905138 98.35128404 63.2734375 98.1953125 C62.49718018 98.19329834 61.72092285 98.19128418 60.92114258 98.18920898 C58.07236667 98.17889036 55.22367622 98.15097018 52.375 98.125 C42.784375 98.063125 42.784375 98.063125 33 98 C33 113.51 33 129.02 33 145 C22.11 145 11.22 145 0 145 C0 97.15 0 49.3 0 0 Z M33 25 C33 40.84 33 56.68 33 73 C39.4040625 73.061875 39.4040625 73.061875 45.9375 73.125 C47.92898071 73.15231201 47.92898071 73.15231201 49.96069336 73.18017578 C59.90773786 73.22644458 67.95354179 73.15606188 75.3359375 65.96484375 C80.51868431 59.84530937 80.47682682 53.13948147 80.28515625 45.34765625 C79.79339385 39.57450041 78.43063672 35.73996357 74.6875 31.1875 C68.47609557 26.1317057 63.08406478 24.86805235 55.265625 24.90234375 C54.09805664 24.90484131 52.93048828 24.90733887 51.72753906 24.90991211 C50.24995117 24.91901611 48.77236328 24.92812012 47.25 24.9375 C40.19625 24.9684375 40.19625 24.9684375 33 25 Z " fill="#1B2451" transform="translate(990,284)"/>
<path d="M0 0 C11.30491309 10.27372169 15.13937879 23.83373353 16.25 38.5390625 C16.33580322 39.57703979 16.33580322 39.57703979 16.42333984 40.63598633 C16.78372644 46.72338604 15.77651658 50.71897959 14.5 57.1015625 C-10.25 57.1015625 -35 57.1015625 -60.5 57.1015625 C-57.31724266 69.69075602 -57.31724266 69.69075602 -48.5 78.1015625 C-41.38778288 81.34659609 -34.5293031 81.57186628 -26.8125 81.4765625 C-25.66289795 81.46931152 -24.5132959 81.46206055 -23.32885742 81.45458984 C-15.02040888 81.31951222 -7.48602827 80.49854024 0.5 78.1015625 C1.68142578 77.78251953 1.68142578 77.78251953 2.88671875 77.45703125 C4.43286677 77.03480222 5.96890258 76.57547361 7.5 76.1015625 C13.5 95.20835862 13.5 95.20835862 13.5 101.1015625 C10.48094209 101.92075671 7.45946921 102.73068017 4.4375 103.5390625 C3.58994141 103.76916016 2.74238281 103.99925781 1.86914062 104.23632812 C0.61713867 104.56987305 0.61713867 104.56987305 -0.66015625 104.91015625 C-1.79916382 105.21651001 -1.79916382 105.21651001 -2.96118164 105.52905273 C-10.58600098 107.24846819 -18.1599423 107.32036219 -25.9309082 107.34179688 C-28.03312918 107.35142794 -30.13433874 107.38247961 -32.23632812 107.4140625 C-49.86882472 107.55156427 -65.70852766 103.63821248 -79.1875 91.7265625 C-79.950625 90.8603125 -80.71375 89.9940625 -81.5 89.1015625 C-81.98082031 88.56273437 -82.46164062 88.02390625 -82.95703125 87.46875 C-93.79378548 74.35490563 -95.54773001 56.49450749 -94.5 40.1015625 C-92.64248954 23.29280217 -88.03402285 9.72383376 -74.64453125 -1.3359375 C-54.3335767 -16.13444719 -19.7768301 -15.01803036 0 0 Z M-53.375 16.7890625 C-58.91124144 22.81379583 -60.17152761 29.08683606 -60.5 37.1015625 C-56.56695528 39.72359231 -53.23374931 39.35304777 -48.67578125 39.296875 C-47.81438034 39.2940451 -46.95297943 39.29121521 -46.06547546 39.28829956 C-43.31434231 39.27710487 -40.56353475 39.25200171 -37.8125 39.2265625 C-35.94727033 39.21653177 -34.08203555 39.20740609 -32.21679688 39.19921875 C-27.6444058 39.17716788 -23.07225811 39.14264299 -18.5 39.1015625 C-18.26886774 31.00699481 -18.58145192 24.05191761 -23.8203125 17.43359375 C-32.16408658 9.65974959 -44.26602548 11.4424905 -53.375 16.7890625 Z " fill="#1B2451" transform="translate(1204.5,324.8984375)"/>
<path d="M0 0 C7.99235899 7.28765637 11.55834064 17.536755 12.05360413 28.14990234 C12.13573633 32.73674558 12.10411755 37.32293694 12.07421875 41.91015625 C12.07048279 43.60123018 12.06763857 45.2923063 12.06564331 46.98338318 C12.05805274 51.40729887 12.0384442 55.83108062 12.01623535 60.25494385 C11.99567769 64.77997018 11.98662049 69.30501842 11.9765625 73.83007812 C11.95519346 82.68886052 11.92111358 91.54754407 11.87890625 100.40625 C9.6298973 101.05172466 7.38066902 101.69643517 5.13134766 102.34082031 C3.87883209 102.69992493 2.62631653 103.05902954 1.33584595 103.42901611 C-11.80179287 107.14286332 -24.67562559 107.73206461 -38.24609375 107.84375 C-39.00819153 107.85587524 -39.77028931 107.86800049 -40.55548096 107.88049316 C-55.21913829 108.07831521 -71.68420583 106.86051501 -83.109375 96.625 C-90.46754818 88.94690625 -91.60647527 81.16401525 -91.54541016 70.79199219 C-91.24668891 61.71808378 -88.78358803 53.76590363 -82.12109375 47.40625 C-70.30594971 37.18449688 -52.76263815 37.859953 -38.12109375 38.15625 C-36.36330199 38.17637987 -34.60548753 38.19461898 -32.84765625 38.2109375 C-28.60489191 38.25434148 -24.36325544 38.32299502 -20.12109375 38.40625 C-20.25745468 36.47876481 -20.40070357 34.55176604 -20.546875 32.625 C-20.62591064 31.55185547 -20.70494629 30.47871094 -20.78637695 29.37304688 C-21.19619485 25.74058362 -21.96932118 23.37421217 -24.12109375 20.40625 C-33.09857878 13.48610529 -44.56479175 14.47885027 -55.43212891 15.65673828 C-60.04898549 16.3363984 -64.58043484 17.32929885 -69.12109375 18.40625 C-70.32765625 18.69242187 -71.53421875 18.97859375 -72.77734375 19.2734375 C-75.56660304 19.9577184 -78.34644812 20.6652935 -81.12109375 21.40625 C-83.31127297 13.2712986 -85.33777215 4.87218478 -85.12109375 -3.59375 C-58.37453891 -10.99353603 -24.18169906 -18.16967443 0 0 Z M-55.18359375 61.90625 C-58.42885217 66.09368022 -58.6759336 70.26137135 -58.12109375 75.40625 C-56.03751425 80.23138148 -52.63472144 83.09823263 -48.01171875 85.50390625 C-44.04830676 86.74113351 -40.3727548 86.69690676 -36.24609375 86.65625 C-35.46878906 86.66398437 -34.69148437 86.67171875 -33.890625 86.6796875 C-33.12363281 86.67710937 -32.35664062 86.67453125 -31.56640625 86.671875 C-30.53797607 86.66849121 -30.53797607 86.66849121 -29.48876953 86.66503906 C-26.29573442 86.31603749 -23.20955826 85.28866843 -20.12109375 84.40625 C-20.12109375 75.16625 -20.12109375 65.92625 -20.12109375 56.40625 C-23.54484375 56.344375 -26.96859375 56.2825 -30.49609375 56.21875 C-31.5536084 56.19143799 -32.61112305 56.16412598 -33.70068359 56.13598633 C-41.55838507 56.06818467 -48.94479601 56.81335388 -55.18359375 61.90625 Z " fill="#1B2451" transform="translate(957.12109375,324.59375)"/>
<path d="M0 0 C7.83288968 7.29035186 12.30555489 17.66822121 13.0015564 28.24688721 C13.12662397 33.01905679 13.08013982 37.78948062 13.03515625 42.5625 C13.02955141 44.31940344 13.02528551 46.07631161 13.02229309 47.83322144 C13.01091415 52.42652648 12.98150793 57.0195407 12.94818115 61.61273193 C12.91732928 66.31209379 12.90375564 71.01150326 12.88867188 75.7109375 C12.85663057 84.9090016 12.80392058 94.10677471 12.7421875 103.3046875 C2.1821875 103.3046875 -8.3778125 103.3046875 -19.2578125 103.3046875 C-19.2671582 101.07984619 -19.27650391 98.85500488 -19.28613281 96.56274414 C-19.32000029 89.18654307 -19.37560318 81.81061889 -19.44171524 74.43463993 C-19.48111317 69.96544556 -19.51333912 65.49644595 -19.52880859 61.02709961 C-19.5440261 56.70855244 -19.57856103 52.39054099 -19.62612152 48.0722332 C-19.64088305 46.43018709 -19.6488505 44.78806447 -19.64969635 43.14595222 C-19.43252455 30.61175098 -19.43252455 30.61175098 -24.2578125 19.3046875 C-30.07184287 14.45966219 -35.03347769 14.10644338 -42.3828125 14.0546875 C-43.09179688 14.0340625 -43.80078125 14.0134375 -44.53125 13.9921875 C-50.96721503 13.94588559 -54.59840487 15.30686521 -61.2578125 17.3046875 C-61.5878125 45.6846875 -61.9178125 74.0646875 -62.2578125 103.3046875 C-72.8178125 103.3046875 -83.3778125 103.3046875 -94.2578125 103.3046875 C-94.2578125 68.3246875 -94.2578125 33.3446875 -94.2578125 -2.6953125 C-84.12822911 -7.19734956 -84.12822911 -7.19734956 -80.1015625 -7.92578125 C-79.22371094 -8.08884766 -78.34585938 -8.25191406 -77.44140625 -8.41992188 C-76.55582031 -8.57267578 -75.67023437 -8.72542969 -74.7578125 -8.8828125 C-73.87222656 -9.04716797 -72.98664062 -9.21152344 -72.07421875 -9.38085938 C-48.11181041 -13.726465 -20.46827176 -15.36890994 0 0 Z " fill="#1B2451" transform="translate(841.2578125,325.6953125)"/>
<path d="M0 0 C10.56 0 21.12 0 32 0 C32 10.89 32 21.78 32 33 C43.22 33 54.44 33 66 33 C66 41.25 66 49.5 66 58 C54.78 58 43.56 58 32 58 C32.07425764 64.79585435 32.15732487 71.59045496 32.26245117 78.38574219 C32.29555928 80.69394274 32.32363444 83.0022215 32.34643555 85.31054688 C32.38024183 88.64226389 32.43257067 91.97327318 32.48828125 95.3046875 C32.49467117 96.32488983 32.5010611 97.34509216 32.50764465 98.39620972 C32.65903877 105.89366562 33.03161262 114.03161262 38.5625 119.5625 C44.1866475 122.87930494 49.55600068 122.55089308 56 122 C58.77346601 121.1896912 61.2679633 120.20107629 63.87890625 118.97265625 C65.91989477 118.03673334 67.82213578 117.51222091 70 117 C70.50612064 119.8740422 71.00506541 122.74902873 71.5 125.625 C71.64308594 126.43324219 71.78617188 127.24148438 71.93359375 128.07421875 C72.67876251 132.43877864 73.17272306 136.55238129 73 141 C59.11387929 148.7441827 42.92917912 150.23319625 27.4375 146.875 C17.68727279 143.93359067 10.13499057 138.91794905 5 130 C0.25447023 119.27915379 -0.15618814 108.50762778 -0.11352539 96.95068359 C-0.11367142 95.89583771 -0.11381744 94.84099182 -0.1139679 93.75418091 C-0.11327679 90.30224478 -0.10552229 86.85036408 -0.09765625 83.3984375 C-0.09578922 80.99134348 -0.09436666 78.58424908 -0.09336853 76.17715454 C-0.08956583 69.86764461 -0.07975488 63.558158 -0.06866455 57.24865723 C-0.05840196 50.79988928 -0.05386055 44.35111753 -0.04882812 37.90234375 C-0.03813046 25.26821731 -0.02055202 12.63411425 0 0 Z " fill="#1B2451" transform="translate(1314,284)"/>
<path d="M0 0 C-1.32 8.25 -2.64 16.5 -4 25 C-8.95 24.01 -8.95 24.01 -14 23 C-16.96790635 22.69526064 -16.96790635 22.69526064 -19.5625 22.75 C-20.38878906 22.74484375 -21.21507812 22.7396875 -22.06640625 22.734375 C-26.0988291 23.09949451 -30.04749752 24.12166612 -34 25 C-34.33 53.71 -34.66 82.42 -35 112 C-45.56 112 -56.12 112 -67 112 C-67 76.69 -67 41.38 -67 5 C-58.76102215 1.33823206 -51.70262771 -0.54637427 -43 -2 C-42.21882813 -2.1340625 -41.43765625 -2.268125 -40.6328125 -2.40625 C-27.77813784 -4.20690482 -12.37735069 -4.12578356 0 0 Z " fill="#1B2451" transform="translate(1303,317)"/>
<path d="M0 0 C10.89 0 21.78 0 33 0 C33 36.96 33 73.92 33 112 C22.11 112 11.22 112 0 112 C0 75.04 0 38.08 0 0 Z " fill="#1B2451" transform="translate(1397,317)"/>
<path d="M0 0 C10.56 0 21.12 0 32 0 C32 36.96 32 73.92 32 112 C21.44 112 10.88 112 0 112 C0 75.04 0 38.08 0 0 Z " fill="#1B2451" transform="translate(1629,317)"/>
<path d="M0 0 C10.56 0 21.12 0 32 0 C32 36.96 32 73.92 32 112 C21.44 112 10.88 112 0 112 C0 75.04 0 38.08 0 0 Z " fill="#1B2451" transform="translate(696,317)"/>
<path d="M0 0 C6.7134375 -0.0928125 6.7134375 -0.0928125 13.5625 -0.1875 C14.96056885 -0.21481201 16.3586377 -0.24212402 17.79907227 -0.27026367 C25.6270257 -0.3226566 31.40215311 -0.31380635 37.375 5.1875 C39.42857753 8.7417688 40.20044801 11.93707296 40 16 C38.58245311 20.55107159 37.269481 23.65867171 33 26 C32.34 26 31.68 26 31 26 C31.53109375 27.05058594 32.0621875 28.10117187 32.609375 29.18359375 C43 49.80034189 43 49.80034189 43 54 C38.71 54 34.42 54 30 54 C27.12494845 48.32975944 24.35475276 42.6751555 21.89453125 36.8125 C21.02957425 34.81547881 21.02957425 34.81547881 19 33 C15.535 32.505 15.535 32.505 12 32 C12 39.26 12 46.52 12 54 C8.04 54 4.08 54 0 54 C0 36.18 0 18.36 0 0 Z M12 9 C12 13.29 12 17.58 12 22 C13.5675 22.061875 15.135 22.12375 16.75 22.1875 C17.63171875 22.22230469 18.5134375 22.25710938 19.421875 22.29296875 C22.5125515 21.94175551 23.81474628 21.19026577 26 19 C26.66666667 15.5 26.66666667 15.5 26 12 C23.81474628 9.80973423 22.5125515 9.05824449 19.421875 8.70703125 C18.09929687 8.75923828 18.09929687 8.75923828 16.75 8.8125 C14.39875 8.9053125 14.39875 8.9053125 12 9 Z " fill="#0058A9" transform="translate(1559,480)"/>
<path d="M0 0 C4.62 0 9.24 0 14 0 C17.47349902 8.00461674 20.94374824 16.01061314 24.40834045 24.01908875 C26.2196285 28.20389585 28.04028159 32.38447964 29.8671875 36.5625 C30.68241564 38.4374461 31.49752885 40.31244218 32.3125 42.1875 C32.69075928 43.04625732 33.06901855 43.90501465 33.45874023 44.78979492 C33.79848877 45.57459229 34.1382373 46.35938965 34.48828125 47.16796875 C34.78259033 47.84110107 35.07689941 48.5142334 35.38012695 49.20776367 C36 51 36 51 36 54 C31.71 54 27.42 54 23 54 C19.125 46.375 19.125 46.375 18 43 C10.41 42.67 2.82 42.34 -5 42 C-5.99 45.3 -6.98 48.6 -8 52 C-8.33 52.66 -8.66 53.32 -9 54 C-13.29 54 -17.58 54 -22 54 C-20.05333448 48.00767176 -17.93971386 42.1437532 -15.56640625 36.30859375 C-15.24719711 35.519048 -14.92798798 34.72950226 -14.59910583 33.91603088 C-13.92902477 32.26092462 -13.25754591 30.60638362 -12.5847168 28.95239258 C-11.56435398 26.44206123 -10.55047036 23.92918031 -9.53710938 21.41601562 C-8.88059705 19.79671735 -8.22370859 18.17757151 -7.56640625 16.55859375 C-7.26835587 15.81878769 -6.97030548 15.07898163 -6.66322327 14.3167572 C-4.66294464 9.41734605 -2.41518516 4.70926266 0 0 Z M6 13 C4.99394407 15.60197202 3.99497475 18.20629362 3 20.8125 C2.71382812 21.55048828 2.42765625 22.28847656 2.1328125 23.04882812 C1.86210938 23.76103516 1.59140625 24.47324219 1.3125 25.20703125 C1.06113281 25.8616333 0.80976562 26.51623535 0.55078125 27.19067383 C-0.14560906 29.16311143 -0.14560906 29.16311143 0 32 C4.62 32 9.24 32 14 32 C13.04864681 29.20577397 12.08930407 26.41475411 11.125 23.625 C10.85558594 22.8309375 10.58617187 22.036875 10.30859375 21.21875 C10.04433594 20.45820313 9.78007813 19.69765625 9.5078125 18.9140625 C9.26691895 18.2123291 9.02602539 17.5105957 8.77783203 16.78759766 C8.04166362 14.79749359 8.04166362 14.79749359 6 13 Z " fill="#0058A9" transform="translate(1625,480)"/>
<path d="M0 0 C4.62 0 9.24 0 14 0 C18.81839953 9.19876274 22.73132149 18.7223719 26.6875 28.3125 C27.37011791 29.95911906 28.05305831 31.60560447 28.73632812 33.25195312 C31.95557517 41.01643047 31.95557517 41.01643047 33.27328491 44.23599243 C33.90415795 45.76735572 34.5535937 47.29104639 35.20629883 48.81323242 C36 51 36 51 36 54 C31.71 54 27.42 54 23 54 C21.35 50.37 19.7 46.74 18 43 C10.74 43 3.48 43 -4 43 C-5.65 46.63 -7.3 50.26 -9 54 C-12.96 54 -16.92 54 -21 54 C-20.37836544 48.63619707 -18.60796406 44.13299504 -16.54296875 39.19921875 C-16.19873367 38.36340775 -15.8544986 37.52759674 -15.49983215 36.66645813 C-14.40156984 34.00434401 -13.29453524 31.34597603 -12.1875 28.6875 C-11.45452995 26.91233562 -10.72210271 25.13694701 -9.99023438 23.36132812 C-6.75378079 15.52923904 -3.46597073 7.73385308 0 0 Z M6 14 C4.99600476 16.62353518 3.99665555 19.24867795 3 21.875 C2.71382812 22.62136719 2.42765625 23.36773437 2.1328125 24.13671875 C0.56663352 27.95985011 0.56663352 27.95985011 0 32 C4.62 32 9.24 32 14 32 C12.2177429 25.88940424 10.30678315 19.9317281 8 14 C7.34 14 6.68 14 6 14 Z " fill="#0058A9" transform="translate(1426,480)"/>
<path d="M0 0 C1.18335938 0.01450195 1.18335938 0.01450195 2.390625 0.02929688 C6.11140145 0.10157547 9.09282503 0.39820626 12.75 1.3125 C12.42 4.6125 12.09 7.9125 11.75 11.3125 C10.96625 11.1475 10.1825 10.9825 9.375 10.8125 C0.89438691 9.42821055 0.89438691 9.42821055 -6.875 12.0625 C-8.59763334 14.44187491 -8.59763334 14.44187491 -8.25 18.3125 C-7.40695312 18.57546875 -6.56390625 18.8384375 -5.6953125 19.109375 C-2.05367179 20.38105906 1.40812321 21.88497897 4.875 23.5625 C5.48214844 23.83707031 6.08929687 24.11164063 6.71484375 24.39453125 C11.20215586 26.57464149 13.49153752 28.88371015 15.75 33.3125 C16.71348922 38.75338032 16.42722046 43.73231894 14.25 48.8125 C8.78393898 54.27856102 2.1876077 56.44498479 -5.4375 56.5 C-10.64651028 56.46499321 -15.22066348 55.63167023 -20.25 54.3125 C-20.32442057 50.44263042 -20.29702186 47.0389085 -19.25 43.3125 C-18.115625 43.6425 -16.98125 43.9725 -15.8125 44.3125 C-9.91061044 45.79059312 -4.12528788 45.9665788 1.75 44.3125 C2.25125283 40.98107722 2.25125283 40.98107722 1.75 37.3125 C-1.01377241 34.77904196 -3.7598707 33.54334362 -7.14453125 31.94921875 C-18.49105671 26.53478552 -18.49105671 26.53478552 -21.25 21.3125 C-22.1078424 16.04739391 -21.88978318 11.77866979 -19.75 6.875 C-14.01951102 1.00124879 -7.98341371 -0.29937801 0 0 Z " fill="#0058A9" transform="translate(1488.25,478.6875)"/>
<path d="M0 0 C2.625 1.6875 2.625 1.6875 4.625 4.6875 C5.346875 4.06875 6.06875 3.45 6.8125 2.8125 C11.27945655 -0.56253384 14.87316437 -1.8109084 20.56640625 -1.6171875 C24.26385086 -1.06993763 26.83095719 0.23156781 29.625 2.6875 C33.67756453 10.26729662 32.96310589 18.33881882 32.8125 26.6875 C32.79742741 28.14451743 32.78374355 29.60154993 32.77148438 31.05859375 C32.73867903 34.60187925 32.68703907 38.14459171 32.625 41.6875 C30.315 41.6875 28.005 41.6875 25.625 41.6875 C25.59994385 40.70354248 25.5748877 39.71958496 25.54907227 38.70581055 C25.4548918 35.05479943 25.3546971 31.40397384 25.25268555 27.75317383 C25.20937695 26.17313985 25.16769894 24.59306031 25.12768555 23.01293945 C25.06988417 20.74155952 25.0062184 18.47040811 24.94140625 16.19921875 C24.92469376 15.49286789 24.90798126 14.78651703 24.89076233 14.0587616 C24.7990253 11.0210176 24.59292314 8.59126942 23.625 5.6875 C19.71818196 4.82800003 17.21381939 4.49500135 13.375 5.75 C10.02428402 8.11073171 9.1792725 9.91829851 7.625 13.6875 C7.12913902 16.96412529 7.12913902 16.96412529 7.11328125 20.3984375 C7.07783203 21.64238281 7.04238281 22.88632812 7.00585938 24.16796875 C6.98330078 25.45316406 6.96074219 26.73835937 6.9375 28.0625 C6.90333984 29.37089844 6.86917969 30.67929687 6.83398438 32.02734375 C6.75172246 35.24731025 6.68249737 38.46701179 6.625 41.6875 C4.645 41.6875 2.665 41.6875 0.625 41.6875 C0.60518066 40.87595459 0.58536133 40.06440918 0.56494141 39.22827148 C0.46928163 35.52687251 0.35976786 31.82600635 0.25 28.125 C0.2190625 26.84818359 0.188125 25.57136719 0.15625 24.25585938 C0.01236649 15.25470764 0.01236649 15.25470764 -2.375 6.6875 C-6.35072787 4.69963607 -8.36687181 4.37730671 -12.625 5.6875 C-15.9385322 8.0973416 -16.81950745 9.91980722 -18.375 13.6875 C-18.87086098 16.96412529 -18.87086098 16.96412529 -18.88671875 20.3984375 C-18.92216797 21.64238281 -18.95761719 22.88632812 -18.99414062 24.16796875 C-19.02797852 26.09576172 -19.02797852 26.09576172 -19.0625 28.0625 C-19.09666016 29.37089844 -19.13082031 30.67929687 -19.16601562 32.02734375 C-19.24827754 35.24731025 -19.31750263 38.46701179 -19.375 41.6875 C-21.355 41.6875 -23.335 41.6875 -25.375 41.6875 C-25.87 20.8975 -25.87 20.8975 -26.375 -0.3125 C-24.395 -0.3125 -22.415 -0.3125 -20.375 -0.3125 C-20.045 1.0075 -19.715 2.3275 -19.375 3.6875 C-18.611875 3.048125 -17.84875 2.40875 -17.0625 1.75 C-11.78547491 -2.29980995 -6.00970086 -2.33710589 0 0 Z " fill="#0058A9" transform="translate(1128.375,492.3125)"/>
<path d="M0 0 C2.26068049 1.41949705 3.96112058 2.67339068 5.6875 4.6875 C6.5228125 3.759375 6.5228125 3.759375 7.375 2.8125 C11.4609478 -0.94215474 15.14257834 -1.7235591 20.6953125 -1.56640625 C24.82256791 -1.0403835 27.73930683 0.64121788 30.5 3.6875 C32.93534359 7.78913132 32.81886323 11.58622975 32.78515625 16.19921875 C32.7837413 16.92744339 32.78232635 17.65566803 32.78086853 18.40596008 C32.77527659 20.72901539 32.76272562 23.05197388 32.75 25.375 C32.74498396 26.95117048 32.74042123 28.52734248 32.73632812 30.10351562 C32.7253098 33.96488098 32.70805074 37.82617408 32.6875 41.6875 C30.7075 41.6875 28.7275 41.6875 26.6875 41.6875 C26.657771 40.47018188 26.657771 40.47018188 26.62744141 39.22827148 C26.53178163 35.52687251 26.42226786 31.82600635 26.3125 28.125 C26.2815625 26.84818359 26.250625 25.57136719 26.21875 24.25585938 C26.07486649 15.25470764 26.07486649 15.25470764 23.6875 6.6875 C19.71177213 4.69963607 17.69562819 4.37730671 13.4375 5.6875 C10.1239678 8.0973416 9.24299255 9.91980722 7.6875 13.6875 C7.19163902 16.96412529 7.19163902 16.96412529 7.17578125 20.3984375 C7.14033203 21.64238281 7.10488281 22.88632812 7.06835938 24.16796875 C7.04580078 25.45316406 7.02324219 26.73835937 7 28.0625 C6.96583984 29.37089844 6.93167969 30.67929687 6.89648438 32.02734375 C6.81422246 35.24731025 6.74499737 38.46701179 6.6875 41.6875 C4.7075 41.6875 2.7275 41.6875 0.6875 41.6875 C0.66768066 40.80489502 0.64786133 39.92229004 0.62744141 39.01293945 C0.54912134 35.72328043 0.46242145 32.43406036 0.37011719 29.14477539 C0.33194851 27.7239627 0.29707487 26.30305737 0.265625 24.88208008 C0.21970935 22.83381145 0.16176195 20.78617392 0.1015625 18.73828125 C0.0701416 17.50762939 0.0387207 16.27697754 0.00634766 15.0090332 C-0.30264374 11.79017565 -0.80214259 9.5348369 -2.3125 6.6875 C-6.07712766 4.58631247 -7.80573814 4.55866224 -12 5.625 C-15.98931824 8.10891513 -17.19675486 10.26794253 -18.3125 14.6875 C-18.80414135 19.33012955 -18.9143683 23.95929541 -19 28.625 C-19.03416016 29.88119141 -19.06832031 31.13738281 -19.10351562 32.43164062 C-19.18563114 35.51683786 -19.25490299 38.60176384 -19.3125 41.6875 C-21.2925 41.6875 -23.2725 41.6875 -25.3125 41.6875 C-25.3125 27.8275 -25.3125 13.9675 -25.3125 -0.3125 C-23.3325 -0.3125 -21.3525 -0.3125 -19.3125 -0.3125 C-18.9825 0.6775 -18.6525 1.6675 -18.3125 2.6875 C-17.714375 2.213125 -17.11625 1.73875 -16.5 1.25 C-11.4080689 -2.38709364 -5.60148145 -2.21945492 0 0 Z " fill="#0058A9" transform="translate(1016.3125,492.3125)"/>
<path d="M0 0 C14.52 0 29.04 0 44 0 C44 2.97 44 5.94 44 9 C38.72 9 33.44 9 28 9 C28 23.85 28 38.7 28 54 C24.04 54 20.08 54 16 54 C16 39.15 16 24.3 16 9 C10.72 9 5.44 9 0 9 C0 6.03 0 3.06 0 0 Z " fill="#0058A9" transform="translate(1508,480)"/>
<path d="M0 0 C1.98 0 3.96 0 6 0 C6.33 7.59 6.66 15.18 7 23 C8.65 21.68 10.3 20.36 12 19 C17.54885563 17.15038146 22.9415324 17.20102398 28.3125 19.625 C33.02622937 22.26356166 35.30822627 25.9246788 37 31 C38.14396816 48.9096655 38.14396816 48.9096655 33 56 C28.9641008 60.14497756 24.5455777 61.94517148 18.7265625 62.03515625 C13.66078833 61.69014505 10.70419227 60.70419227 7 57 C6.67 58.32 6.34 59.64 6 61 C4.02 61 2.04 61 0 61 C0 40.87 0 20.74 0 0 Z M9.1875 27.75 C5.81479796 34.1403828 5.40569066 40.04927007 7 47 C9.01595944 50.82337135 11.08131508 54.04065754 15 56 C19.46962466 56.49662496 21.8216698 56.60225766 25.8125 54.5625 C30.21313298 49.40747279 31.31137564 44.00578593 30.9375 37.3125 C30.31582179 32.63355345 29.32785125 29.50300131 26 26 C19.69462007 22.38509947 14.57995358 22.54349309 9.1875 27.75 Z " fill="#0058A9" transform="translate(1172,473)"/>
<path d="M0 0 C5.04174538 4.42689838 7.63303778 8.99781825 8.25 15.7265625 C8.55816599 23.33441033 7.64112597 29.60479468 2.6796875 35.59375 C-1.686957 39.6979186 -6.66757558 40.90979106 -12.453125 41.06640625 C-18.61636168 40.75446329 -23.37876902 39.17298225 -28 35 C-32.94753304 28.58971806 -33.64920783 21.83770913 -33 14 C-31.73648141 8.34898771 -29.21098007 4.0238254 -25 0 C-17.34536635 -4.43868253 -7.62961619 -4.56170736 0 0 Z M-21 5 C-25.93198887 11.07014015 -26.63935434 16.42246709 -26 24 C-24.25198049 29.14694634 -21.5966319 32.10582436 -17 35 C-12.33351558 35.96173066 -8.93310106 35.43199123 -4.625 33.4375 C0.17502515 28.98033379 1.16810363 24.83515976 1.4375 18.5 C1.25847363 12.29375251 -0.43423651 8.56576349 -4.875 4.125 C-10.57331981 1.10824245 -15.59299985 1.78346899 -21 5 Z " fill="#0058A9" transform="translate(1342,494)"/>
<path d="M0 0 C5.08396173 2.83567586 6.87910731 7.01232192 8.6875 12.4375 C8.6875 15.7375 8.6875 19.0375 8.6875 22.4375 C-0.8825 22.4375 -10.4525 22.4375 -20.3125 22.4375 C-18.23953652 30.89245843 -18.23953652 30.89245843 -14.75 34 C-7.87561874 36.87474125 -1.19088994 35.82998346 5.6875 33.4375 C5.6875 35.4175 5.6875 37.3975 5.6875 39.4375 C-0.94075413 43.2074161 -9.14728605 43.10905769 -16.375 41.16015625 C-20.6652836 39.55994966 -22.78820247 37.33629577 -25.0625 33.4375 C-28.08382885 26.18631077 -28.62531447 17.70094998 -26.3125 10.125 C-24.27949606 5.45300056 -20.42680639 2.29926553 -16.3125 -0.5625 C-10.78835448 -2.40388184 -5.37196576 -2.35400747 0 0 Z M-15.3125 6.4375 C-19.16972008 10.29472008 -19.35587927 11.69777564 -20.3125 17.4375 C-13.0525 17.4375 -5.7925 17.4375 1.6875 17.4375 C1.42808674 9.89230559 1.42808674 9.89230559 -1.5625 6.5 C-6.81710254 2.55904809 -9.81099907 2.92590366 -15.3125 6.4375 Z " fill="#0058A9" transform="translate(1243.3125,492.5625)"/>
<path d="M0 0 C5.0463351 2.85641609 8.06272218 6.2143378 9.625 11.8125 C10.51459196 15.65651661 10.3125 18.70508817 10.3125 22.875 C0.7425 23.205 -8.8275 23.535 -18.6875 23.875 C-17.03841207 30.60252549 -17.03841207 30.60252549 -12.58984375 35 C-6.61811406 37.74675041 0.38998616 35.93500481 6.3125 33.875 C6.3125 36.185 6.3125 38.495 6.3125 40.875 C-2.02534697 43.06345875 -10.16800365 44.09366185 -18.125 40.1875 C-22.82211242 35.94864245 -25.49487606 31.71383477 -25.92578125 25.36328125 C-26.12918856 17.68718653 -26.29636299 11.35232096 -21.6875 4.875 C-15.316482 -1.33265856 -8.37577318 -2.55532063 0 0 Z M-14.6875 6.875 C-17.86836886 10.72552546 -18.68929426 12.88397128 -19.6875 17.875 C-12.0975 17.875 -4.5075 17.875 3.3125 17.875 C2.12870292 9.70242924 2.12870292 9.70242924 -2.6875 4.875 C-7.33918185 2.98918303 -10.45671942 4.49037822 -14.6875 6.875 Z " fill="#0058A9" transform="translate(1083.6875,492.125)"/>
<path d="M0 0 C1.18142578 0.00966797 1.18142578 0.00966797 2.38671875 0.01953125 C4.3125 0.1875 4.3125 0.1875 5.3125 1.1875 C5.35313832 2.85367115 5.355221 4.52138095 5.3125 6.1875 C2.3425 6.1875 -0.6275 6.1875 -3.6875 6.1875 C-4.3475 10.8075 -5.0075 15.4275 -5.6875 20.1875 C-2.3875 20.1875 0.9125 20.1875 4.3125 20.1875 C4.3125 21.8375 4.3125 23.4875 4.3125 25.1875 C1.0125 25.1875 -2.2875 25.1875 -5.6875 25.1875 C-5.6875 37.3975 -5.6875 49.6075 -5.6875 62.1875 C-7.6675 62.1875 -9.6475 62.1875 -11.6875 62.1875 C-11.6875 49.9775 -11.6875 37.7675 -11.6875 25.1875 C-14.6575 25.1875 -17.6275 25.1875 -20.6875 25.1875 C-20.6875 23.5375 -20.6875 21.8875 -20.6875 20.1875 C-17.7175 20.1875 -14.7475 20.1875 -11.6875 20.1875 C-11.72230469 19.30707031 -11.75710938 18.42664063 -11.79296875 17.51953125 C-11.83357422 15.77736328 -11.83357422 15.77736328 -11.875 14 C-11.90980469 12.85144531 -11.94460938 11.70289063 -11.98046875 10.51953125 C-11.65649939 6.83491969 -10.96772694 5.07237139 -8.6875 2.1875 C-5.79459479 0.20123725 -3.46632042 -0.06302401 0 0 Z " fill="#0058A9" transform="translate(1374.6875,471.8125)"/>
<path d="M0 0 C1 1 1 1 1.0625 4.0625 C1.041875 5.031875 1.02125 6.00125 1 7 C-0.2375 7.0825 -1.475 7.165 -2.75 7.25 C-5.55530307 7.6266838 -6.93811578 7.96091523 -9.375 9.5 C-13.69441164 16.14524867 -13.38127112 24.89011781 -13.625 32.5625 C-13.66367188 33.57119141 -13.70234375 34.57988281 -13.7421875 35.61914062 C-13.83546203 38.0792564 -13.92125516 40.53938366 -14 43 C-15.98 43 -17.96 43 -20 43 C-20 29.14 -20 15.28 -20 1 C-18.02 1 -16.04 1 -14 1 C-13.67 2.32 -13.34 3.64 -13 5 C-12.401875 4.360625 -11.80375 3.72125 -11.1875 3.0625 C-7.67824513 -0.24622602 -4.64880362 -0.2021219 0 0 Z " fill="#0058A9" transform="translate(1281,491)"/>
</svg>
