<?xml version="1.0" encoding="UTF-8"?>
<svg version="1.1" xmlns="http://www.w3.org/2000/svg" width="559" height="692">
<path d="M0 0 C2.52405289 0.00056481 5.04810611 0.00024618 7.57215881 -0.00088501 C12.98440314 -0.00133867 18.39658536 0.00428941 23.80881691 0.01559067 C31.63375864 0.03191917 39.45867711 0.03706115 47.28363403 0.03956665 C59.98239691 0.04393229 72.68113395 0.05721052 85.37988281 0.07617188 C97.70768099 0.09456008 110.03547211 0.10870215 122.36328125 0.1171875 C123.12453671 0.11771295 123.88579218 0.11823839 124.67011598 0.11877976 C128.48951993 0.12139004 132.30892393 0.12391741 136.12832797 0.12640357 C167.76029424 0.1471008 199.39222804 0.18244512 231.02416992 0.22705078 C231.0947083 15.00612077 231.14737507 29.78516805 231.17960644 44.56437302 C231.19497954 51.42887804 231.21588244 58.29327759 231.25048828 65.15771484 C231.28394405 71.79727156 231.30108407 78.43674853 231.30880165 85.07639313 C231.31429301 87.59418702 231.32501415 90.11197578 231.34136009 92.6297226 C231.63025198 139.02380308 218.82342505 180.14801339 185.83666992 213.78955078 C171.82166285 227.74157692 155.33671335 237.65058495 136.64916992 244.10205078 C135.87307373 244.37621826 135.09697754 244.65038574 134.29736328 244.93286133 C119.59209486 249.70810778 104.23770401 250.676501 88.89453125 250.56762695 C87.17746496 250.56677757 85.46039758 250.56726187 83.74333191 250.56895447 C79.14946298 250.56980373 74.55583637 250.55235456 69.96202302 250.5312326 C65.13612792 250.51228426 60.31022527 250.51070123 55.48429871 250.50715637 C46.37589198 250.49788861 37.26759524 250.47334737 28.15923661 250.4431079 C17.77690512 250.40939832 7.39456796 250.39303655 -2.98780477 250.3780216 C-24.31720757 250.34679217 -45.64651185 250.29413595 -66.97583008 250.22705078 C-66.84064371 247.21500028 -66.69909118 244.20346875 -66.55395508 241.19189453 C-66.5167334 240.34800171 -66.47951172 239.50410889 -66.44116211 238.63464355 C-65.63815412 222.35011395 -61.01214765 208.18590779 -50.97583008 195.22705078 C-50.53883789 194.61345703 -50.1018457 193.99986328 -49.65161133 193.36767578 C-41.36137307 182.51318966 -27.17994143 175.50400274 -13.97583008 173.22705078 C-12.31308858 173.1375996 -10.64743813 173.09403492 -8.9822998 173.08901978 C-8.00134338 173.08356644 -7.02038696 173.0781131 -6.00970459 173.07249451 C-4.94471741 173.07145218 -3.87973022 173.07040985 -2.7824707 173.06933594 C-1.65170105 173.06425522 -0.5209314 173.0591745 0.644104 173.05393982 C3.09892505 173.04324527 5.55375578 173.0346215 8.0085907 173.02782059 C11.90238487 173.01600873 15.79606927 172.99654767 19.68981934 172.97470093 C30.76086481 172.91296477 41.83190567 172.85890916 52.90307617 172.82568359 C59.67815213 172.80526243 66.4530212 172.7692878 73.22798157 172.72492599 C75.80175927 172.71082444 78.37557224 172.70205686 80.9493866 172.69887161 C84.565019 172.69392517 88.18012924 172.67066938 91.7956543 172.64355469 C93.3688443 172.64806389 93.3688443 172.64806389 94.97381592 172.65266418 C113.28395541 172.45026149 128.11581001 165.81865251 141.17651367 153.13720703 C158.34902164 134.90995769 160.6888672 112.92919661 161.57104492 89.15673828 C161.61535645 88.0055249 161.65966797 86.85431152 161.70532227 85.66821289 C161.81337142 82.85455461 161.9196138 80.04084066 162.02416992 77.22705078 C138.37110488 77.28765973 114.71814743 77.36521225 91.06520462 77.46276569 C80.08197237 77.50767241 69.09877217 77.54709888 58.11547852 77.57348633 C48.53901232 77.59650792 38.96264799 77.62995237 29.38626266 77.67575234 C24.31875472 77.69962846 19.25134733 77.71839397 14.18378448 77.72466469 C9.40671424 77.73074097 4.62990107 77.75083219 -0.14707375 77.78132629 C-1.89325229 77.79006591 -3.63946448 77.79383763 -5.38566399 77.79205894 C-24.27188593 77.7789042 -39.68882635 81.43516977 -53.77270508 94.99658203 C-54.49973633 95.73263672 -55.22676758 96.46869141 -55.97583008 97.22705078 C-56.59973633 97.82904297 -57.22364258 98.43103516 -57.86645508 99.05126953 C-71.66646637 113.37965964 -76.11276101 133.48620863 -76.13354492 152.74536133 C-76.13862564 153.78049362 -76.14370636 154.81562592 -76.14894104 155.88212585 C-76.1596092 158.12192132 -76.16824319 160.36172721 -76.17506027 162.6015377 C-76.18690492 166.15497161 -76.20637264 169.70828701 -76.22817993 173.26167297 C-76.28960464 183.36231505 -76.34376649 193.46294401 -76.37719727 203.5637207 C-76.39822239 209.75107393 -76.43358722 215.93820886 -76.47795486 222.12543678 C-76.49205111 224.4739607 -76.50082278 226.82252321 -76.50400925 229.17108727 C-76.526145 243.92525995 -76.69667367 256.974383 -83.60083008 270.35205078 C-83.9456543 271.02872803 -84.29047852 271.70540527 -84.64575195 272.40258789 C-87.90036158 278.52689259 -91.96120272 283.43509782 -96.97583008 288.22705078 C-97.89428711 289.17451172 -97.89428711 289.17451172 -98.83129883 290.14111328 C-109.76536087 300.72547185 -126.1908701 306.3078717 -141.19458008 306.24658203 C-142.09112305 306.24376221 -142.98766602 306.24094238 -143.91137695 306.23803711 C-144.59264648 306.23441162 -145.27391602 306.23078613 -145.97583008 306.22705078 C-146.04615907 284.25958689 -146.09893464 262.29214177 -146.13126659 240.32458782 C-146.14668321 230.12284755 -146.16767221 219.92117756 -146.20214844 209.71948242 C-146.23221122 200.8194436 -146.25144282 191.91945571 -146.25809556 183.01936752 C-146.26197946 178.31432234 -146.27099628 173.6094228 -146.29302025 168.90442467 C-146.31365329 164.45981104 -146.31961083 160.01540054 -146.31515312 155.57074356 C-146.31596652 153.95486782 -146.3217703 152.33898401 -146.3334465 150.72315025 C-146.43622352 135.74267941 -144.90549308 120.69332515 -140.35083008 106.35205078 C-140.09922119 105.5416333 -139.8476123 104.73121582 -139.58837891 103.89624023 C-130.76784341 76.47296677 -116.15105636 52.74161573 -95.97583008 32.22705078 C-95.2977832 31.52451172 -94.61973633 30.82197266 -93.92114258 30.09814453 C-80.94184525 17.59862668 -63.43082498 9.66052961 -46.41333008 4.47705078 C-45.76549561 4.27805176 -45.11766113 4.07905273 -44.45019531 3.87402344 C-29.7693934 -0.34740917 -15.13781308 -0.04753056 0 0 Z " fill="#23AB4C" transform="translate(256.975830078125,283.77294921875)"/>
<path d="M0 0 C1.66692091 0.00056546 3.33384232 0.00024493 5.00076294 -0.00088501 C9.48543194 -0.00145427 13.96999198 0.01023029 18.45463586 0.02426291 C23.15645294 0.03684202 27.85827306 0.03794639 32.56010437 0.04031372 C41.44556148 0.04650752 50.33096885 0.06288966 59.21640414 0.0830127 C69.33984337 0.10543739 79.46328508 0.11638159 89.586743 0.12640357 C110.39468901 0.14725795 131.20259039 0.18239271 152.01049805 0.22705078 C152.08026662 13.28437452 152.13344513 26.34165328 152.16593456 39.39912605 C152.18153444 45.46341705 152.20266827 51.52757971 152.23681641 57.59179688 C152.26961322 63.45327883 152.28739367 69.31463799 152.29512978 75.17620468 C152.300637 77.40310471 152.31139038 79.62999866 152.32768822 81.85684586 C152.50097959 106.5346967 148.74022289 125.74896002 131.38549805 144.41455078 C115.9566941 159.2990871 95.82085135 163.22705078 75.01049805 163.22705078 C75.01049805 134.84705078 75.01049805 106.46705078 75.01049805 77.22705078 C60.96487305 77.30955078 46.91924805 77.39205078 32.44799805 77.47705078 C25.83982056 77.5007373 25.83982056 77.5007373 19.09814453 77.52490234 C15.08671477 77.55819545 15.08671477 77.55819545 11.07533264 77.59661865 C9.31353579 77.6110609 7.55166612 77.61799758 5.78981018 77.61859131 C-17.00393033 77.63938562 -35.16256932 83.08528139 -52.1027832 99.24267578 C-63.80068775 111.50843977 -70.77721746 127.68349835 -71.27929688 144.57543945 C-71.69846639 158.23508091 -72.97189496 170.68196965 -82.77075195 181.12548828 C-87.33618059 185.26056913 -92.41885814 188.72732433 -97.4309082 192.29345703 C-99.67401813 193.98863171 -101.60700341 195.70596428 -103.55200195 197.72705078 C-104.35637695 198.55205078 -105.16075195 199.37705078 -105.98950195 200.22705078 C-106.64950195 200.22705078 -107.30950195 200.22705078 -107.98950195 200.22705078 C-108.21895508 200.78134766 -108.4484082 201.33564453 -108.68481445 201.90673828 C-110.35016613 204.86847151 -112.48166651 206.92777472 -114.86450195 209.35205078 C-129.43152696 224.83299038 -140.99902624 245.22063881 -147.98950195 265.22705078 C-148.31950195 265.22705078 -148.64950195 265.22705078 -148.98950195 265.22705078 C-149.08352092 248.26599979 -149.15375995 231.30503173 -149.19675064 214.34377861 C-149.21725484 206.46591279 -149.24513862 198.58821017 -149.29125977 190.71044922 C-149.33150428 183.83309177 -149.35702261 176.95585266 -149.36585593 170.0783807 C-149.37100811 166.44682771 -149.38285316 162.81561283 -149.41242218 159.18416977 C-149.6478723 129.0607504 -145.44945085 102.82173066 -130.98950195 76.22705078 C-130.15805664 74.65697266 -130.15805664 74.65697266 -129.30981445 73.05517578 C-110.88560298 39.73291771 -77.922446 15.40549455 -41.6184082 4.91064453 C-37.76802902 3.87916433 -33.9076403 2.96173432 -29.98950195 2.22705078 C-29.11712293 2.05988115 -28.2447439 1.89271152 -27.34592915 1.72047615 C-18.19176784 0.13344281 -9.25021154 -0.04446331 0 0 Z " fill="#1D2652" transform="translate(259.989501953125,110.77294921875)"/>
<path d="M0 0 C0.07011826 8.32896761 0.12312008 16.65780786 0.15543652 24.98699951 C0.17096213 28.8563494 0.19195408 32.72549449 0.22631836 36.59472656 C0.25938801 40.34248814 0.27695092 44.09005522 0.28463173 47.83795166 C0.29009133 49.2537949 0.30074638 50.66962991 0.31719017 52.08538818 C0.57541001 75.28173565 -5.3248409 97.51740387 -21.61328125 114.74609375 C-27.36096167 120.17393598 -36.60801085 128 -45 128 C-45.33 128.99 -45.66 129.98 -46 131 C-54.65355764 132.24071083 -63.27512184 132.1336726 -71.99438477 132.11352539 C-73.70997618 132.11324297 -75.42556771 132.11340232 -77.14115906 132.1139679 C-81.77685259 132.11425374 -86.41252003 132.10839152 -91.04820752 132.10139394 C-95.90086562 132.09512485 -100.75352439 132.09455379 -105.60618591 132.09336853 C-114.78571065 132.09026568 -123.96522343 132.08206642 -133.14474291 132.07201904 C-143.59940645 132.06082538 -154.05407058 132.05533926 -164.50873864 132.05032361 C-186.00583243 132.03988291 -207.50291546 132.02230377 -229 132 C-228.86481363 128.9879495 -228.72326111 125.97641796 -228.578125 122.96484375 C-228.54090332 122.12095093 -228.50368164 121.27705811 -228.46533203 120.40759277 C-227.66232404 104.12306317 -223.03631758 89.95885701 -213 77 C-212.56300781 76.38640625 -212.12601563 75.7728125 -211.67578125 75.140625 C-203.385543 64.28613888 -189.20411135 57.27695196 -176 55 C-174.3372585 54.91054882 -172.67160805 54.86698414 -171.00646973 54.86196899 C-170.02551331 54.85651566 -169.04455688 54.85106232 -168.03387451 54.84544373 C-166.96888733 54.8444014 -165.90390015 54.84335907 -164.80664062 54.84228516 C-163.67587097 54.83720444 -162.54510132 54.83212372 -161.38006592 54.82688904 C-158.92524488 54.81619448 -156.47041414 54.80757072 -154.01557922 54.80076981 C-150.12178506 54.78895795 -146.22810065 54.76949689 -142.33435059 54.74765015 C-131.26330511 54.68591399 -120.19226425 54.63185837 -109.12109375 54.59863281 C-102.34601779 54.57821165 -95.57114872 54.54223702 -88.79618835 54.49787521 C-86.22241066 54.48377366 -83.64859768 54.47500608 -81.07478333 54.47182083 C-77.45915092 54.46687439 -73.84404068 54.44361859 -70.22851562 54.41650391 C-68.65532562 54.42101311 -68.65532562 54.42101311 -67.050354 54.4256134 C-48.74021451 54.22321071 -33.90835991 47.59160173 -20.84765625 34.91015625 C-12.87051939 26.44306089 -7.86597788 16.88544242 -4.59692383 5.81201172 C-4.11333299 4.19265377 -3.5621435 2.59379263 -3 1 C-1 0 -1 0 0 0 Z " fill="#0C4B26" transform="translate(419,402)"/>
<path d="M0 0 C0 0.66 0 1.32 0 2 C-0.67804688 2.32871094 -1.35609375 2.65742187 -2.0546875 2.99609375 C-16.59312755 10.42640452 -27.34186622 21.60654781 -33 37 C-36.2517185 47.4596945 -37.17440282 57.77748563 -37.06591797 68.68139648 C-37.06124512 69.59177673 -37.05657227 70.50215698 -37.05175781 71.44012451 C-37.04133322 73.39832742 -37.02869756 75.3565196 -37.01403427 77.31469536 C-36.99181808 80.42277587 -36.97786494 83.5307937 -36.96633911 86.63893127 C-36.93292728 95.46974171 -36.89118943 104.30044809 -36.82861328 113.13110352 C-36.79080021 118.55021463 -36.76789432 123.96922133 -36.75430679 129.3884449 C-36.7462983 131.44199608 -36.73275511 133.49553397 -36.71337509 135.54900932 C-36.57217083 150.77145913 -36.71636192 165.10559625 -47.78125 176.8984375 C-52.34667863 181.03351835 -57.42935619 184.50027354 -62.44140625 188.06640625 C-64.68451618 189.76158093 -66.61750146 191.4789135 -68.5625 193.5 C-69.366875 194.325 -70.17125 195.15 -71 196 C-71.66 196 -72.32 196 -73 196 C-73.22945312 196.55429687 -73.45890625 197.10859375 -73.6953125 197.6796875 C-75.36066418 200.64142073 -77.49216456 202.70072394 -79.875 205.125 C-94.442025 220.6059396 -106.00952429 240.99358803 -113 261 C-113.33 261 -113.66 261 -114 261 C-114.09401897 244.03894901 -114.164258 227.07798094 -114.20724869 210.11672783 C-114.22775288 202.23886201 -114.25563666 194.36115939 -114.30175781 186.48339844 C-114.34200232 179.60604099 -114.36752065 172.72880188 -114.37635398 165.85132992 C-114.38150615 162.21977692 -114.39335121 158.58856205 -114.42292023 154.95711899 C-114.65837035 124.83369962 -110.4599489 98.59467988 -96 72 C-95.16855469 70.42992187 -95.16855469 70.42992187 -94.3203125 68.828125 C-75.87966845 35.47614677 -43.25760149 11.74766545 -7.16015625 0.77734375 C-4 0 -4 0 0 0 Z " fill="#035AAA" transform="translate(225,115)"/>
<path d="M0 0 C0.66 0.33 1.32 0.66 2 1 C-5.26 8.26 -12.52 15.52 -20 23 C-20.66 22.67 -21.32 22.34 -22 22 C-6.93673978 5.53646622 -6.93673978 5.53646622 0 0 Z " fill="#6CC788" transform="translate(170,308)"/>
<path d="M0 0 C0.66 0.33 1.32 0.66 2 1 C-1.63 4.63 -5.26 8.26 -9 12 C-9.66 11.67 -10.32 11.34 -11 11 C-7.6189962 6.86378916 -4.33409466 3.18683431 0 0 Z " fill="#58836A" transform="translate(217,468)"/>
<path d="M0 0 C-3.13498292 1.85776765 -5.37471432 2.20140476 -9 2 C-9 1.34 -9 0.68 -9 0 C-5.93109813 -1.53445094 -3.29905734 -0.54984289 0 0 Z " fill="#60BD7C" transform="translate(383,530)"/>
</svg>
