<?xml version="1.0" encoding="UTF-8"?>
<svg version="1.1" xmlns="http://www.w3.org/2000/svg" width="348" height="506">
<path d="M0 0 C2.52464284 0.0008478 5.04928642 0.00036815 7.57392883 -0.00132751 C12.97522093 -0.00200651 18.37637242 0.00639752 23.77763557 0.023386 C31.58659661 0.04793117 39.3955053 0.05559699 47.20450073 0.05934998 C59.87887688 0.06589035 72.55319458 0.08578541 85.22753906 0.11425781 C97.52799185 0.14186128 109.82842868 0.16306394 122.12890625 0.17578125 C122.88911082 0.17656942 123.64931539 0.17735759 124.43255646 0.17816965 C128.24687781 0.1820852 132.06119928 0.18587622 135.87552083 0.18960536 C167.44041248 0.22062596 199.00523148 0.27362078 230.57006836 0.34057617 C230.64060673 15.11964616 230.6932735 29.89869344 230.72550488 44.67789841 C230.74087798 51.54240343 230.76178088 58.40680299 230.79638672 65.27124023 C230.82984249 71.91079695 230.84698251 78.55027392 230.85470009 85.18991852 C230.86019145 87.70771241 230.87091258 90.22550117 230.88725853 92.74324799 C231.17615042 139.13732847 218.36932348 180.26153878 185.38256836 213.90307617 C171.36756128 227.85510231 154.88261179 237.76411034 136.19506836 244.21557617 C135.03092407 244.62682739 135.03092407 244.62682739 133.84326172 245.04638672 C119.1379933 249.82163317 103.78360245 250.79002639 88.44042969 250.68115234 C86.72336339 250.68030296 85.00629602 250.68078726 83.28923035 250.68247986 C78.69536142 250.68332912 74.10173481 250.66587995 69.50792146 250.64475799 C64.68202636 250.62580965 59.85612371 250.62422662 55.03019714 250.62068176 C45.92179041 250.611414 36.81349368 250.58687276 27.70513505 250.55663329 C17.32280356 250.52292371 6.94046639 250.50656194 -3.44190633 250.49154699 C-24.77130913 250.46031756 -46.10061341 250.40766134 -67.42993164 250.34057617 C-67.29474527 247.32852567 -67.15319275 244.31699414 -67.00805664 241.30541992 C-66.97083496 240.4615271 -66.93361328 239.61763428 -66.89526367 238.74816895 C-66.09225569 222.46363934 -61.46624922 208.29943318 -51.42993164 195.34057617 C-50.77444336 194.42018555 -50.77444336 194.42018555 -50.10571289 193.48120117 C-41.81547464 182.62671505 -27.63404299 175.61752813 -14.42993164 173.34057617 C-12.76719015 173.25112499 -11.10153969 173.20756032 -9.43640137 173.20254517 C-8.45544495 173.19709183 -7.47448853 173.19163849 -6.46380615 173.1860199 C-5.39881897 173.18497757 -4.33383179 173.18393524 -3.23657227 173.18286133 C-2.10580261 173.17778061 -0.97503296 173.17269989 0.19000244 173.16746521 C2.64482348 173.15677066 5.09965422 173.1481469 7.55448914 173.14134598 C11.4482833 173.12953412 15.3419677 173.11007307 19.23571777 173.08822632 C30.30676325 173.02649016 41.37780411 172.97243455 52.44897461 172.93920898 C59.22405057 172.91878782 65.99891964 172.88281319 72.77388 172.83845139 C75.3476577 172.82434983 77.92147068 172.81558225 80.49528503 172.812397 C84.11091744 172.80745056 87.72602768 172.78419477 91.34155273 172.75708008 C92.91474274 172.76158928 92.91474274 172.76158928 94.51971436 172.76618958 C112.82985385 172.56378688 127.66170845 165.9321779 140.72241211 153.25073242 C157.89492007 135.02348309 160.23476564 113.042722 161.11694336 89.27026367 C161.16125488 88.11905029 161.20556641 86.96783691 161.2512207 85.78173828 C161.35926985 82.96808 161.46551223 80.15436606 161.57006836 77.34057617 C137.91700332 77.40118512 114.26404587 77.47873764 90.61110306 77.57629108 C79.6278708 77.6211978 68.6446706 77.66062427 57.66137695 77.68701172 C48.08491075 77.71003331 38.50854643 77.74347776 28.93216109 77.78927773 C23.86465316 77.81315385 18.79724577 77.83191936 13.72968292 77.83819008 C8.95261268 77.84426636 4.17579951 77.86435758 -0.60117531 77.89485168 C-2.34735385 77.9035913 -4.09356604 77.90736302 -5.83976555 77.90558434 C-24.72598749 77.89242959 -40.14292792 81.54869517 -54.22680664 95.11010742 C-54.95383789 95.84616211 -55.68086914 96.5822168 -56.42993164 97.34057617 C-57.05383789 97.94256836 -57.67774414 98.54456055 -58.32055664 99.16479492 C-72.12056793 113.49318503 -76.56686258 133.59973402 -76.58764648 152.85888672 C-76.5927272 153.89401901 -76.59780792 154.92915131 -76.6030426 155.99565125 C-76.61371076 158.23544671 -76.62234475 160.4752526 -76.62916183 162.7150631 C-76.64100648 166.268497 -76.6604742 169.8218124 -76.68228149 173.37519836 C-76.7437062 183.47584044 -76.79786806 193.5764694 -76.83129883 203.67724609 C-76.85232395 209.86459932 -76.88768878 216.05173425 -76.93205643 222.23896217 C-76.94615267 224.58748609 -76.95492434 226.9360486 -76.95811081 229.28461266 C-76.98024656 244.03878534 -77.15077524 257.08790839 -84.05493164 270.46557617 C-84.39975586 271.14225342 -84.74458008 271.81893066 -85.09985352 272.51611328 C-88.35125811 278.63438696 -92.40252691 283.56850373 -97.42993164 288.34057617 C-98.48760742 289.35764648 -98.48760742 289.35764648 -99.56665039 290.39526367 C-103.31782421 293.83919849 -106.83791982 296.09079857 -111.42993164 298.34057617 C-111.6811698 266.84089157 -111.875691 235.34149339 -111.99165026 203.84104015 C-112.00540713 200.11749517 -112.01964476 196.39395218 -112.03417969 192.67041016 C-112.0370651 191.92915711 -112.03995052 191.18790407 -112.04292337 190.42418882 C-112.0907164 178.44048806 -112.17740583 166.45737103 -112.2786124 154.47401593 C-112.3816811 142.16702454 -112.44262034 129.86033768 -112.46490508 117.55293244 C-112.47995781 109.96547731 -112.52739655 102.37967227 -112.61701278 94.79272547 C-112.68233955 88.9632117 -112.68888887 83.13474203 -112.67411613 77.30493546 C-112.67713138 74.92209562 -112.69886764 72.53919076 -112.74119186 70.15672493 C-113.09223593 49.36870373 -113.09223593 49.36870373 -106.09016418 41.58146667 C-104.26669382 39.73792707 -102.38385603 38.05339694 -100.42993164 36.34057617 C-99.14570149 34.95705856 -97.87136378 33.56411205 -96.61743164 32.15307617 C-84.34374728 20.30348253 -69.07846582 12.01771525 -53.05493164 6.52807617 C-52.25434326 6.2500415 -51.45375488 5.97200684 -50.62890625 5.68554688 C-33.86755488 0.24849353 -17.44075898 -0.08266131 0 0 Z " fill="#24AC4D" transform="translate(111.429931640625,192.659423828125)"/>
<path d="M0 0 C1.66692091 0.00056546 3.33384232 0.00024493 5.00076294 -0.00088501 C9.48543194 -0.00145427 13.96999198 0.01023029 18.45463586 0.02426291 C23.15645294 0.03684202 27.85827306 0.03794639 32.56010437 0.04031372 C41.44556148 0.04650752 50.33096885 0.06288966 59.21640414 0.0830127 C69.33984337 0.10543739 79.46328508 0.11638159 89.586743 0.12640357 C110.39468901 0.14725795 131.20259039 0.18239271 152.01049805 0.22705078 C152.08026662 13.28437452 152.13344513 26.34165328 152.16593456 39.39912605 C152.18153444 45.46341705 152.20266827 51.52757971 152.23681641 57.59179688 C152.26961322 63.45327883 152.28739367 69.31463799 152.29512978 75.17620468 C152.300637 77.40310471 152.31139038 79.62999866 152.32768822 81.85684586 C152.50097959 106.5346967 148.74022289 125.74896002 131.38549805 144.41455078 C115.9566941 159.2990871 95.82085135 163.22705078 75.01049805 163.22705078 C75.01049805 134.84705078 75.01049805 106.46705078 75.01049805 77.22705078 C60.96487305 77.30955078 46.91924805 77.39205078 32.44799805 77.47705078 C25.83982056 77.5007373 25.83982056 77.5007373 19.09814453 77.52490234 C15.08671477 77.55819545 15.08671477 77.55819545 11.07533264 77.59661865 C9.31353579 77.6110609 7.55166612 77.61799758 5.78981018 77.61859131 C-17.00393033 77.63938562 -35.16256932 83.08528139 -52.1027832 99.24267578 C-63.80068775 111.50843977 -70.77721746 127.68349835 -71.27929688 144.57543945 C-71.69846639 158.23508091 -72.97189496 170.68196965 -82.77075195 181.12548828 C-87.33618059 185.26056913 -92.41885814 188.72732433 -97.4309082 192.29345703 C-99.67401813 193.98863171 -101.60700341 195.70596428 -103.55200195 197.72705078 C-104.35637695 198.55205078 -105.16075195 199.37705078 -105.98950195 200.22705078 C-106.64950195 200.22705078 -107.30950195 200.22705078 -107.98950195 200.22705078 C-108.23700195 200.82517578 -108.48450195 201.42330078 -108.73950195 202.03955078 C-110.15797102 204.52187165 -111.68214933 205.59033114 -113.98950195 207.22705078 C-114.38797693 187.18155812 -114.68705355 167.13687708 -114.87030888 147.0882349 C-114.95769063 137.77744119 -115.07663747 128.46911856 -115.27197266 119.15991211 C-115.44230221 111.03848897 -115.55129338 102.91885598 -115.58900636 94.7956962 C-115.6110308 90.49988221 -115.6621269 86.2091853 -115.78691292 81.91502571 C-116.61273863 52.3543832 -116.61273863 52.3543832 -108.16039944 43.01864529 C-104.64850045 39.73380562 -100.94079635 36.9540614 -96.98950195 34.22705078 C-95.01963819 32.69122736 -93.07578722 31.12675367 -91.13189793 29.55832005 C-73.58472307 15.85659576 -51.82086558 6.32061312 -29.98950195 2.22705078 C-29.11712293 2.05988115 -28.2447439 1.89271152 -27.34592915 1.72047615 C-18.19176784 0.13344281 -9.25021154 -0.04446331 0 0 Z " fill="#1E2753" transform="translate(113.989501953125,19.77294921875)"/>
<path d="M0 0 C0.07011826 8.32896761 0.12312008 16.65780786 0.15543652 24.98699951 C0.17096213 28.8563494 0.19195408 32.72549449 0.22631836 36.59472656 C0.25938801 40.34248814 0.27695092 44.09005522 0.28463173 47.83795166 C0.29009133 49.2537949 0.30074638 50.66962991 0.31719017 52.08538818 C0.56691412 74.51853446 -4.87827721 97.03322658 -20.63671875 113.83203125 C-27.96793212 120.55735922 -35.46987202 125.1409616 -45 128 C-45.33 128.99 -45.66 129.98 -46 131 C-54.65355764 132.24071083 -63.27512184 132.1336726 -71.99438477 132.11352539 C-73.70997618 132.11324297 -75.42556771 132.11340232 -77.14115906 132.1139679 C-81.77685259 132.11425374 -86.41252003 132.10839152 -91.04820752 132.10139394 C-95.90086562 132.09512485 -100.75352439 132.09455379 -105.60618591 132.09336853 C-114.78571065 132.09026568 -123.96522343 132.08206642 -133.14474291 132.07201904 C-143.59940645 132.06082538 -154.05407058 132.05533926 -164.50873864 132.05032361 C-186.00583243 132.03988291 -207.50291546 132.02230377 -229 132 C-228.86481363 128.9879495 -228.72326111 125.97641796 -228.578125 122.96484375 C-228.54090332 122.12095093 -228.50368164 121.27705811 -228.46533203 120.40759277 C-227.66232404 104.12306317 -223.03631758 89.95885701 -213 77 C-212.56300781 76.38640625 -212.12601563 75.7728125 -211.67578125 75.140625 C-203.385543 64.28613888 -189.20411135 57.27695196 -176 55 C-174.3372585 54.91054882 -172.67160805 54.86698414 -171.00646973 54.86196899 C-170.02551331 54.85651566 -169.04455688 54.85106232 -168.03387451 54.84544373 C-166.96888733 54.8444014 -165.90390015 54.84335907 -164.80664062 54.84228516 C-163.67587097 54.83720444 -162.54510132 54.83212372 -161.38006592 54.82688904 C-158.92524488 54.81619448 -156.47041414 54.80757072 -154.01557922 54.80076981 C-150.12178506 54.78895795 -146.22810065 54.76949689 -142.33435059 54.74765015 C-131.26330511 54.68591399 -120.19226425 54.63185837 -109.12109375 54.59863281 C-102.34601779 54.57821165 -95.57114872 54.54223702 -88.79618835 54.49787521 C-86.22241066 54.48377366 -83.64859768 54.47500608 -81.07478333 54.47182083 C-77.45915092 54.46687439 -73.84404068 54.44361859 -70.22851562 54.41650391 C-68.65532562 54.42101311 -68.65532562 54.42101311 -67.050354 54.4256134 C-48.74021451 54.22321071 -33.90835991 47.59160173 -20.84765625 34.91015625 C-12.87051939 26.44306089 -7.86597788 16.88544242 -4.59692383 5.81201172 C-4.11333299 4.19265377 -3.5621435 2.59379263 -3 1 C-1 0 -1 0 0 0 Z " fill="#0E4C27" transform="translate(273,311)"/>
<path d="M0 0 C0 0.66 0 1.32 0 2 C-0.87140625 2.37769531 -1.7428125 2.75539063 -2.640625 3.14453125 C-18.72962087 10.57959752 -29.9723064 21.65627034 -36.2265625 38.6015625 C-39.49523286 48.7377423 -40.17129752 59.08960242 -40.06591797 69.68139648 C-40.06124512 70.59177673 -40.05657227 71.50215698 -40.05175781 72.44012451 C-40.04133322 74.39832742 -40.02869756 76.3565196 -40.01403427 78.31469536 C-39.99181808 81.42277587 -39.97786494 84.5307937 -39.96633911 87.63893127 C-39.93292728 96.46974171 -39.89118943 105.30044809 -39.82861328 114.13110352 C-39.79080021 119.55021463 -39.76789432 124.96922133 -39.75430679 130.3884449 C-39.7462983 132.44199608 -39.73275511 134.49553397 -39.71337509 136.54900932 C-39.57217083 151.77145913 -39.71636192 166.10559625 -50.78125 177.8984375 C-55.34667863 182.03351835 -60.42935619 185.50027354 -65.44140625 189.06640625 C-67.68451618 190.76158093 -69.61750146 192.4789135 -71.5625 194.5 C-72.366875 195.325 -73.17125 196.15 -74 197 C-74.66 197 -75.32 197 -76 197 C-76.2475 197.598125 -76.495 198.19625 -76.75 198.8125 C-78.16846907 201.29482087 -79.69264738 202.36328035 -82 204 C-82.39847497 183.95450734 -82.6975516 163.9098263 -82.88080692 143.86118412 C-82.96818868 134.55039041 -83.08713552 125.24206778 -83.2824707 115.93286133 C-83.45280026 107.81143819 -83.56179142 99.69180519 -83.59950441 91.56864542 C-83.62152885 87.27283143 -83.67262495 82.98213452 -83.79741096 78.68797493 C-84.62323667 49.12733242 -84.62323667 49.12733242 -76.17089748 39.79159451 C-72.6589985 36.50675484 -68.9512944 33.72701061 -65 31 C-63.03013624 29.46417658 -61.08628527 27.89970289 -59.14239597 26.33126926 C-43.98837539 14.49824124 -19.63960205 0 0 0 Z " fill="#045AAA" transform="translate(82,23)"/>
<path d="M0 0 C0.66 0.33 1.32 0.66 2 1 C-5.59 8.59 -13.18 16.18 -21 24 C-21 19.6782199 -18.39351052 17.78251059 -15.5625 14.8125 C-15.02206055 14.23604736 -14.48162109 13.65959473 -13.92480469 13.06567383 C-9.5267051 8.42820865 -4.9053275 4.10016011 0 0 Z " fill="#7FCE97" transform="translate(24,217)"/>
<path d="M0 0 C0.66 0.33 1.32 0.66 2 1 C-1.63 4.63 -5.26 8.26 -9 12 C-9.66 11.67 -10.32 11.34 -11 11 C-7.6189962 6.86378916 -4.33409466 3.18683431 0 0 Z " fill="#70957F" transform="translate(71,377)"/>
<path d="M0 0 C0 0.66 0 1.32 0 2 C-2.64 2.99 -5.28 3.98 -8 5 C-8 4.34 -8 3.68 -8 3 C-8.66 2.67 -9.32 2.34 -10 2 C-3.375 0 -3.375 0 0 0 Z " fill="#6394C4" transform="translate(82,23)"/>
<path d="M0 0 C0.8353125 0.556875 0.8353125 0.556875 1.6875 1.125 C-1.44748292 2.98276765 -3.68721432 3.32640476 -7.3125 3.125 C-7.3125 2.465 -7.3125 1.805 -7.3125 1.125 C-2.88173077 -1.09038462 -2.88173077 -1.09038462 0 0 Z " fill="#6DC287" transform="translate(235.3125,437.875)"/>
</svg>
